<svg width="1994" height="539" viewBox="0 0 1994 539" fill="none" xmlns="http://www.w3.org/2000/svg">
<path d="M515.132 530H359.732L195.232 280.8V530H39.832V34.4H195.232L359.732 287.8V34.4H515.132V530ZM756.84 534.9C710.173 534.9 667.24 523.933 628.04 502C589.307 480.067 558.507 449.733 535.64 411C512.773 372.267 501.34 328.633 501.34 280.1C501.34 231.567 512.773 187.933 535.64 149.2C558.507 110.467 589.307 80.3666 628.04 58.9C667.24 36.9666 710.173 26 756.84 26C803.507 26 846.207 36.9666 884.94 58.9C923.673 80.3666 954.24 110.467 976.64 149.2C999.507 187.933 1010.94 231.567 1010.94 280.1C1010.94 328.633 999.507 372.267 976.64 411C954.24 449.733 923.44 480.067 884.24 502C845.507 523.933 803.04 534.9 756.84 534.9ZM756.84 390C787.64 390 811.44 380.2 828.24 360.6C845.04 340.533 853.44 313.7 853.44 280.1C853.44 246.033 845.04 219.2 828.24 199.6C811.44 179.533 787.64 169.5 756.84 169.5C725.573 169.5 701.54 179.533 684.74 199.6C667.94 219.2 659.54 246.033 659.54 280.1C659.54 313.7 667.94 340.533 684.74 360.6C701.54 380.2 725.573 390 756.84 390ZM1238.5 534.9C1191.83 534.9 1148.9 523.933 1109.7 502C1070.97 480.067 1040.17 449.733 1017.3 411C994.433 372.267 983 328.633 983 280.1C983 231.567 994.433 187.933 1017.3 149.2C1040.17 110.467 1070.97 80.3666 1109.7 58.9C1148.9 36.9666 1191.83 26 1238.5 26C1285.17 26 1327.87 36.9666 1366.6 58.9C1405.33 80.3666 1435.9 110.467 1458.3 149.2C1481.17 187.933 1492.6 231.567 1492.6 280.1C1492.6 328.633 1481.17 372.267 1458.3 411C1435.9 449.733 1405.1 480.067 1365.9 502C1327.17 523.933 1284.7 534.9 1238.5 534.9ZM1238.5 390C1269.3 390 1293.1 380.2 1309.9 360.6C1326.7 340.533 1335.1 313.7 1335.1 280.1C1335.1 246.033 1326.7 219.2 1309.9 199.6C1293.1 179.533 1269.3 169.5 1238.5 169.5C1207.23 169.5 1183.2 179.533 1166.4 199.6C1149.6 219.2 1141.2 246.033 1141.2 280.1C1141.2 313.7 1149.6 340.533 1166.4 360.6C1183.2 380.2 1207.23 390 1238.5 390ZM1953.96 530H1798.56L1634.06 280.8V530H1478.66V34.4H1634.06L1798.56 287.8V34.4H1953.96V530Z" fill="#D5D5D5"/>
<path d="M786 336.76C779.962 336.76 774.379 335.279 769.252 332.316C764.125 329.354 760.08 325.367 757.118 320.354C754.156 315.227 752.732 309.644 752.846 303.605C752.732 297.681 754.156 292.212 757.118 287.199C760.08 282.186 764.125 278.199 769.252 275.236C774.379 272.274 779.962 270.793 786 270.793C791.697 270.793 797.108 272.274 802.235 275.236C807.362 278.199 811.464 282.186 814.54 287.199C817.616 292.212 819.154 297.681 819.154 303.605C819.154 309.644 817.616 315.227 814.54 320.354C811.464 325.367 807.362 329.354 802.235 332.316C797.108 335.279 791.697 336.76 786 336.76Z" fill="#D5D5D5"/>
<path d="M1268 336.76C1261.96 336.76 1256.38 335.279 1251.25 332.316C1246.12 329.354 1242.08 325.367 1239.12 320.354C1236.16 315.227 1234.73 309.644 1234.85 303.605C1234.73 297.681 1236.16 292.212 1239.12 287.199C1242.08 282.186 1246.12 278.199 1251.25 275.236C1256.38 272.274 1261.96 270.793 1268 270.793C1273.7 270.793 1279.11 272.274 1284.24 275.236C1289.36 278.199 1293.46 282.186 1296.54 287.199C1299.62 292.212 1301.15 297.681 1301.15 303.605C1301.15 309.644 1299.62 315.227 1296.54 320.354C1293.46 325.367 1289.36 329.354 1284.24 332.316C1279.11 335.279 1273.7 336.76 1268 336.76Z" fill="#D5D5D5"/>
</svg>
